**** Ocean's.Twelve.2004.1080p.BRRiP.x264.AC-3(5.1).mkv-Zen_Bud ****

Format                           : Matroska
File size                        : 4.34 GiB
Duration                         : 2h 5mn
Overall bit rate                 : 4 960 Kbps
Writing application              : HandBrake svn3720
Writing library                  : libmkv 0.6.4.1

Video

Format                           : AVC
Codec ID                         : V_MPEG4
Duration                         : 2h 5mn
Bit rate                         : 4 315 Kbps
Width                            : 1 920 pixels
Height                           : 800 pixels
Display aspect ratio             : 2.40:1
Bits/(Pixel*Frame)               : 0.117
Stream size                      : 3.69 GiB (85%)
Writing library                  : x264 core 112


Audio

Format                           : AC-3
Duration                         : 2h 5mn
Bit rate                         : 640 Kbps
Channel(s)                       : 6 channels
Channel positions                : Front: L C R, Side: L R, LFE
Sampling rate                    : 48.0 KHz
Stream size                      : 574 MiB (13%)
Language                         : English

Text #1
Codec ID/Info                    : UTF-8 Plain Text
Language                         : English

Text #2
Codec ID/Info                    : UTF-8 Plain Text
Language                         : Swedish

***********************************************************************
Daniel Ocean recruits one more team member so he can pull off three 
major European heists in this sequel to Ocean's 11.
 
http://en.wikipedia.org/wiki/Ocean%27s_Twelve

***********************************************************************

Screenshots:
       
http://img23.imageshack.us/slideshow/webplayer.php?id=vlcsnap00001dv.png
  
+ Sample included:[55,7 MB]
		